<svg xmlns="http://www.w3.org/2000/svg" xmlns:xlink="http://www.w3.org/1999/xlink" version="1.1" width="722.1" height="556.3" viewBox="85.9 59.9 722.1 556.3"><g><g transform="translate(201,60)"><g><g>
<path d="M521,0H0v391h521V0L521,0z" stroke="#000000" stroke-dasharray="none" fill="#FFFFFF"/>
<rect x="22.8" y="17.8" width="475.5" height="355.3" fill="none"/>
<circle fill="none" cx="260.5" cy="0" r="0.1"/>
<circle fill="none" cx="389.6" cy="0" r="0.1"/>
<circle fill="none" cx="521" cy="98.6" r="0.1"/>
<circle fill="none" cx="521" cy="195.5" r="0.1"/>
<circle fill="none" cx="521" cy="292.4" r="0.1"/>
<circle fill="none" cx="389.6" cy="391" r="0.1"/>
<circle fill="none" cx="260.5" cy="391" r="0.1"/>
<circle fill="none" cx="131.4" cy="391" r="0.1"/>
<circle fill="none" cx="0" cy="292.4" r="0.1"/>
<circle fill="none" cx="0" cy="195.5" r="0.1"/>
<circle fill="none" cx="0" cy="98.6" r="0.1"/>
<circle fill="none" cx="131.4" cy="0" r="0.1"/>
</g></g><rect stroke="none" stroke-width="0" fill="#FFFFFF" x="0" y="0" width="0" height="0" transform="translate(260.4,-0.1)"/><path stroke="#000000" fill="none" d=""/><text font-family="OpenSansCondensedLight" font-size="14pt" fill="black" transform="translate(260.4,-0.1)"/><rect stroke-width="0" fill="none" width="475.5" height="355.3" transform="translate(22.8,17.8)"/><text font-family="OpenSansCondensedLight" font-size="14pt" fill="black" transform="translate(22.8,17.8)" text-anchor="middle"><tspan x="237.7" y="16.8">COMPUTER SYSTEM/SERVER 102</tspan></text><path stroke="#000000" fill="none" transform="translate(22.8,17.8)" d="M 353.6 19 381.6 19"/></g><g transform="translate(379,107)"><g><g>
<path d="M325,0H0v201h325V0L325,0z" stroke="#000000" stroke-dasharray="none" fill="#FFFFFF"/>
<rect x="14.2" y="9.2" width="296.6" height="182.7" fill="none"/>
<circle fill="none" cx="162.5" cy="0" r="0.1"/>
<circle fill="none" cx="243" cy="0" r="0.1"/>
<circle fill="none" cx="325" cy="50.7" r="0.1"/>
<circle fill="none" cx="325" cy="100.5" r="0.1"/>
<circle fill="none" cx="325" cy="150.3" r="0.1"/>
<circle fill="none" cx="243" cy="201" r="0.1"/>
<circle fill="none" cx="162.5" cy="201" r="0.1"/>
<circle fill="none" cx="82" cy="201" r="0.1"/>
<circle fill="none" cx="0" cy="150.3" r="0.1"/>
<circle fill="none" cx="0" cy="100.5" r="0.1"/>
<circle fill="none" cx="0" cy="50.7" r="0.1"/>
<circle fill="none" cx="82" cy="0" r="0.1"/>
</g></g><rect stroke="none" stroke-width="0" fill="#FFFFFF" x="0" y="0" width="0" height="0" transform="translate(162.4,-0.1)"/><path stroke="#000000" fill="none" d=""/><text font-family="OpenSansCondensedLight" font-size="14pt" fill="black" transform="translate(162.4,-0.1)"/><rect stroke-width="0" fill="none" width="296.6" height="182.7" transform="translate(14.2,9.2)"/><text font-family="OpenSansCondensedLight" font-size="14pt" fill="black" transform="translate(14.2,9.2)" text-anchor="middle"><tspan x="148.3" y="16.8">MEMORY 106</tspan></text><path stroke="#000000" fill="none" transform="translate(14.2,9.2)" d="M 178.1 19 206.1 19"/></g><g transform="translate(219,213)"><g><g>
<path d="M139,0H0v54h139V0L139,0z" stroke="#000000" stroke-dasharray="none" fill="#FFFFFF"/>
<rect x="6.1" y="2.5" width="126.9" height="49.1" fill="none"/>
<circle fill="none" cx="69.5" cy="0" r="0.1"/>
<circle fill="none" cx="103.9" cy="0" r="0.1"/>
<circle fill="none" cx="139" cy="13.6" r="0.1"/>
<circle fill="none" cx="139" cy="27" r="0.1"/>
<circle fill="none" cx="139" cy="40.4" r="0.1"/>
<circle fill="none" cx="103.9" cy="54" r="0.1"/>
<circle fill="none" cx="69.5" cy="54" r="0.1"/>
<circle fill="none" cx="35.1" cy="54" r="0.1"/>
<circle fill="none" cx="0" cy="40.4" r="0.1"/>
<circle fill="none" cx="0" cy="27" r="0.1"/>
<circle fill="none" cx="0" cy="13.6" r="0.1"/>
<circle fill="none" cx="35.1" cy="0" r="0.1"/>
</g></g><rect stroke="none" stroke-width="0" fill="#FFFFFF" x="0" y="0" width="0" height="0" transform="translate(69.4,-0.1)"/><path stroke="#000000" fill="none" d=""/><text font-family="OpenSansCondensedLight" font-size="14pt" fill="black" transform="translate(69.4,-0.1)"/><rect stroke-width="0" fill="none" width="126.9" height="49.1" transform="translate(6.1,2.5)"/><text font-family="OpenSansCondensedLight" font-size="14pt" fill="black" transform="translate(6.1,2.5)" text-anchor="middle"><tspan x="63.4" y="20.3">PROCESSING</tspan><tspan x="63.4" y="41.3">UNITS 104</tspan></text><path stroke="#000000" fill="none" transform="translate(6.1,2.5)" d="M 79.2 43 107.2 43"/></g><g transform="translate(390,147.1)"><g><g>
<path d="M103,0H0v36.9h103V0L103,0z" stroke="#000000" stroke-dasharray="none" fill="#FFFFFF"/>
<rect x="4.5" y="1.7" width="94" height="33.6" fill="none"/>
<circle fill="none" cx="51.5" cy="0" r="0.1"/>
<circle fill="none" cx="77" cy="0" r="0.1"/>
<circle fill="none" cx="103" cy="9.3" r="0.1"/>
<circle fill="none" cx="103" cy="18.5" r="0.1"/>
<circle fill="none" cx="103" cy="27.6" r="0.1"/>
<circle fill="none" cx="77" cy="36.9" r="0.1"/>
<circle fill="none" cx="51.5" cy="36.9" r="0.1"/>
<circle fill="none" cx="26" cy="36.9" r="0.1"/>
<circle fill="none" cx="0" cy="27.6" r="0.1"/>
<circle fill="none" cx="0" cy="18.5" r="0.1"/>
<circle fill="none" cx="0" cy="9.3" r="0.1"/>
<circle fill="none" cx="26" cy="0" r="0.1"/>
</g></g><rect stroke="none" stroke-width="0" fill="#FFFFFF" x="0" y="0" width="0" height="0" transform="translate(51.4,-0.1)"/><path stroke="#000000" fill="none" d=""/><text font-family="OpenSansCondensedLight" font-size="14pt" fill="black" transform="translate(51.4,-0.1)"/><rect stroke-width="0" fill="none" width="94" height="33.6" transform="translate(4.5,1.7)"/><text font-family="OpenSansCondensedLight" font-size="14pt" fill="black" transform="translate(4.5,1.7)" text-anchor="middle"><tspan x="47" y="23.1">RAM 108</tspan></text><path stroke="#000000" fill="none" transform="translate(4.5,1.7)" d="M 56.6 25 84.6 25"/></g><g transform="translate(218,346)"><g><g>
<path d="M139,0H0v84h139V0L139,0z" stroke="#000000" stroke-dasharray="none" fill="#FFFFFF"/>
<rect x="6.1" y="3.8" width="126.9" height="76.3" fill="none"/>
<circle fill="none" cx="69.5" cy="0" r="0.1"/>
<circle fill="none" cx="103.9" cy="0" r="0.1"/>
<circle fill="none" cx="139" cy="21.2" r="0.1"/>
<circle fill="none" cx="139" cy="42" r="0.1"/>
<circle fill="none" cx="139" cy="62.8" r="0.1"/>
<circle fill="none" cx="103.9" cy="84" r="0.1"/>
<circle fill="none" cx="69.5" cy="84" r="0.1"/>
<circle fill="none" cx="35.1" cy="84" r="0.1"/>
<circle fill="none" cx="0" cy="62.8" r="0.1"/>
<circle fill="none" cx="0" cy="42" r="0.1"/>
<circle fill="none" cx="0" cy="21.2" r="0.1"/>
<circle fill="none" cx="35.1" cy="0" r="0.1"/>
</g></g><rect stroke="none" stroke-width="0" fill="#FFFFFF" x="0" y="0" width="0" height="0" transform="translate(69.4,-0.1)"/><path stroke="#000000" fill="none" d=""/><text font-family="OpenSansCondensedLight" font-size="14pt" fill="black" transform="translate(69.4,-0.1)"/><rect stroke-width="0" fill="none" width="126.9" height="76.3" transform="translate(6.1,3.8)"/><text font-family="OpenSansCondensedLight" font-size="14pt" fill="black" transform="translate(6.1,3.8)" text-anchor="middle"><tspan x="63.4" y="23.5">I/O</tspan><tspan x="63.4" y="44.5">INTERFACES</tspan><tspan x="63.4" y="65.5">118</tspan></text><path stroke="#000000" fill="none" transform="translate(6.1,3.8)" d="M 49.8 68 77.1 68"/></g><g transform="translate(391,204)"><g><g>
<path d="M103,0H0v36.9h103V0L103,0z" stroke="#000000" stroke-dasharray="none" fill="#FFFFFF"/>
<rect x="4.5" y="1.7" width="94" height="33.6" fill="none"/>
<circle fill="none" cx="51.5" cy="0" r="0.1"/>
<circle fill="none" cx="77" cy="0" r="0.1"/>
<circle fill="none" cx="103" cy="9.3" r="0.1"/>
<circle fill="none" cx="103" cy="18.5" r="0.1"/>
<circle fill="none" cx="103" cy="27.6" r="0.1"/>
<circle fill="none" cx="77" cy="36.9" r="0.1"/>
<circle fill="none" cx="51.5" cy="36.9" r="0.1"/>
<circle fill="none" cx="26" cy="36.9" r="0.1"/>
<circle fill="none" cx="0" cy="27.6" r="0.1"/>
<circle fill="none" cx="0" cy="18.5" r="0.1"/>
<circle fill="none" cx="0" cy="9.3" r="0.1"/>
<circle fill="none" cx="26" cy="0" r="0.1"/>
</g></g><rect stroke="none" stroke-width="0" fill="#FFFFFF" x="0" y="0" width="0" height="0" transform="translate(51.4,36.8)"/><path stroke="#000000" fill="none" d=""/><text font-family="OpenSansCondensedLight" font-size="14pt" fill="black" transform="translate(51.4,36.8)"/><rect stroke-width="0" fill="none" width="94" height="33.6" transform="translate(4.5,1.7)"/><text font-family="OpenSansCondensedLight" font-size="14pt" fill="black" transform="translate(4.5,1.7)" text-anchor="middle"><tspan x="47" y="12.6">CACHE</tspan><tspan x="47" y="33.6">110</tspan></text><path stroke="#000000" fill="none" transform="translate(4.5,1.7)" d="M 33.3 36 60.7 36"/></g><g transform="translate(216,497)"><g><g>
<path d="M139,0H0v54h139V0L139,0z" stroke="#000000" stroke-dasharray="none" fill="#FFFFFF"/>
<rect x="6.1" y="2.5" width="126.9" height="49.1" fill="none"/>
<circle fill="none" cx="69.5" cy="0" r="0.1"/>
<circle fill="none" cx="103.9" cy="0" r="0.1"/>
<circle fill="none" cx="139" cy="13.6" r="0.1"/>
<circle fill="none" cx="139" cy="27" r="0.1"/>
<circle fill="none" cx="139" cy="40.4" r="0.1"/>
<circle fill="none" cx="103.9" cy="54" r="0.1"/>
<circle fill="none" cx="69.5" cy="54" r="0.1"/>
<circle fill="none" cx="35.1" cy="54" r="0.1"/>
<circle fill="none" cx="0" cy="40.4" r="0.1"/>
<circle fill="none" cx="0" cy="27" r="0.1"/>
<circle fill="none" cx="0" cy="13.6" r="0.1"/>
<circle fill="none" cx="35.1" cy="0" r="0.1"/>
</g></g><rect stroke="none" stroke-width="0" fill="#FFFFFF" x="0" y="0" width="0" height="0" transform="translate(69.4,-0.1)"/><path stroke="#000000" fill="none" d=""/><text font-family="OpenSansCondensedLight" font-size="14pt" fill="black" transform="translate(69.4,-0.1)"/><rect stroke-width="0" fill="none" width="126.9" height="49.1" transform="translate(6.1,2.5)"/><text font-family="OpenSansCondensedLight" font-size="14pt" fill="black" transform="translate(6.1,2.5)" text-anchor="middle"><tspan x="63.4" y="9.8">EXTERNAL</tspan><tspan x="63.4" y="30.8">DEVICE(S)</tspan><tspan x="63.4" y="51.8">122</tspan></text><path stroke="#000000" fill="none" transform="translate(6.1,2.5)" d="M 49.4 54 77.4 54"/></g><g transform="translate(86,347)"><g><g>
<path d="M94,0H0v84h94V0L94,0z" stroke="#000000" stroke-dasharray="none" fill="#FFFFFF"/>
<rect x="4.1" y="3.8" width="85.8" height="76.3" fill="none"/>
<circle fill="none" cx="47" cy="0" r="0.1"/>
<circle fill="none" cx="70.3" cy="0" r="0.1"/>
<circle fill="none" cx="94" cy="21.2" r="0.1"/>
<circle fill="none" cx="94" cy="42" r="0.1"/>
<circle fill="none" cx="94" cy="62.8" r="0.1"/>
<circle fill="none" cx="70.3" cy="84" r="0.1"/>
<circle fill="none" cx="47" cy="84" r="0.1"/>
<circle fill="none" cx="23.7" cy="84" r="0.1"/>
<circle fill="none" cx="0" cy="62.8" r="0.1"/>
<circle fill="none" cx="0" cy="42" r="0.1"/>
<circle fill="none" cx="0" cy="21.2" r="0.1"/>
<circle fill="none" cx="23.7" cy="0" r="0.1"/>
</g></g><rect stroke="none" stroke-width="0" fill="#FFFFFF" x="0" y="0" width="0" height="0" transform="translate(46.9,-0.1)"/><path stroke="#000000" fill="none" d=""/><text font-family="OpenSansCondensedLight" font-size="14pt" fill="black" transform="translate(46.9,-0.1)"/><rect stroke-width="0" fill="none" width="85.8" height="76.3" transform="translate(4.1,3.8)"/><text font-family="OpenSansCondensedLight" font-size="14pt" fill="black" transform="translate(4.1,3.8)" text-anchor="middle"><tspan x="42.9" y="34">DISPLAY</tspan><tspan x="42.9" y="55">120</tspan></text><path stroke="#000000" fill="none" transform="translate(4.1,3.8)" d="M 28.9 57 56.9 57"/></g><g transform="translate(391,366)"><g><g>
<path d="M230,0H0v37h230V0L230,0z" stroke="#000000" stroke-dasharray="none" fill="#FFFFFF"/>
<rect x="10.1" y="1.7" width="209.9" height="33.6" fill="none"/>
<circle fill="none" cx="115" cy="0" r="0.1"/>
<circle fill="none" cx="172" cy="0" r="0.1"/>
<circle fill="none" cx="230" cy="9.3" r="0.1"/>
<circle fill="none" cx="230" cy="18.5" r="0.1"/>
<circle fill="none" cx="230" cy="27.7" r="0.1"/>
<circle fill="none" cx="172" cy="37" r="0.1"/>
<circle fill="none" cx="115" cy="37" r="0.1"/>
<circle fill="none" cx="58" cy="37" r="0.1"/>
<circle fill="none" cx="0" cy="27.7" r="0.1"/>
<circle fill="none" cx="0" cy="18.5" r="0.1"/>
<circle fill="none" cx="0" cy="9.3" r="0.1"/>
<circle fill="none" cx="58" cy="0" r="0.1"/>
</g></g><rect stroke="none" stroke-width="0" fill="#FFFFFF" x="0" y="0" width="0" height="0" transform="translate(114.9,36.9)"/><path stroke="#000000" fill="none" d=""/><text font-family="OpenSansCondensedLight" font-size="14pt" fill="black" transform="translate(114.9,36.9)"/><rect stroke-width="0" fill="none" width="209.9" height="33.6" transform="translate(10.1,1.7)"/><text font-family="OpenSansCondensedLight" font-size="14pt" fill="black" transform="translate(10.1,1.7)" text-anchor="middle"><tspan x="104.9" y="12.6">NETWORK ADAPTER</tspan><tspan x="104.9" y="33.6">124</tspan></text><path stroke="#000000" fill="none" transform="translate(10.1,1.7)" d="M 91 36 118.9 36"/></g><g transform="translate(573,148)"><g><g>
<g stroke="#000000" stroke-dasharray="none" fill="#FFFFFF">
    <path d="M127.7,13H0v53c0,7.1,28.6,13,64,13s64,-5.9,64,-13v-53L127.7,13L127.7,13z"/>
    <path d="M64,0C28.6,0,0,5.9,0,13s28.6,13,64,13s64,-5.9,64,-13C127.7,5.9,99.1,0,64,0L64,0z"/>
</g>
<rect x="6.8" y="28.9" width="114.1" height="37.5" fill="none"/>
<circle fill="none" cx="64" cy="0" r="0.1"/>
<circle fill="none" cx="97.6" cy="2" r="0.1"/>
<circle fill="none" cx="128" cy="13" r="0.1"/>
<circle fill="none" cx="128" cy="39.5" r="0.1"/>
<circle fill="none" cx="128" cy="66" r="0.1"/>
<circle fill="none" cx="99.3" cy="76.8" r="0.1"/>
<circle fill="none" cx="64" cy="79" r="0.1"/>
<circle fill="none" cx="26.9" cy="76.5" r="0.1"/>
<circle fill="none" cx="0" cy="66" r="0.1"/>
<circle fill="none" cx="0" cy="39.5" r="0.1"/>
<circle fill="none" cx="0" cy="13" r="0.1"/>
<circle fill="none" cx="30.2" cy="2" r="0.1"/>
</g></g><rect stroke="none" stroke-width="0" fill="#FFFFFF" x="0" y="0" width="0" height="0" transform="translate(127.9,39.4)"/><path stroke="#000000" fill="none" d=""/><text font-family="OpenSansCondensedLight" font-size="14pt" fill="black" transform="translate(127.9,39.4)"/><rect stroke-width="0" fill="none" width="114.1" height="37.5" transform="translate(6.8,28.9)"/><text font-family="OpenSansCondensedLight" font-size="14pt" fill="black" transform="translate(6.8,28.9)" text-anchor="middle"><tspan x="57.1" y="4">STORAGE</tspan><tspan x="57.1" y="25">SYSTEM</tspan><tspan x="57.1" y="46">112</tspan></text><path stroke="#000000" fill="none" transform="translate(6.8,28.9)" d="M 43.4 48 70.7 48"/></g><g transform="translate(587,241)"><g><g>
<path d="M100,0H0v61h100V0L100,0z" stroke="#000000" stroke-dasharray="none" fill="#FFFFFF"/>
<rect x="4.4" y="2.8" width="91.3" height="55.4" fill="none"/>
<circle fill="none" cx="50" cy="0" r="0.1"/>
<circle fill="none" cx="74.8" cy="0" r="0.1"/>
<circle fill="none" cx="100" cy="15.4" r="0.1"/>
<circle fill="none" cx="100" cy="30.5" r="0.1"/>
<circle fill="none" cx="100" cy="45.6" r="0.1"/>
<circle fill="none" cx="74.8" cy="61" r="0.1"/>
<circle fill="none" cx="50" cy="61" r="0.1"/>
<circle fill="none" cx="25.2" cy="61" r="0.1"/>
<circle fill="none" cx="0" cy="45.6" r="0.1"/>
<circle fill="none" cx="0" cy="30.5" r="0.1"/>
<circle fill="none" cx="0" cy="15.4" r="0.1"/>
<circle fill="none" cx="25.2" cy="0" r="0.1"/>
</g></g><rect stroke="none" stroke-width="1" fill="#FFFFFF" x="0" y="0" width="40" height="20" transform="translate(-72.1,-24.7)"/><path stroke="#000000" fill="none" d="M0,15.4 C-6.2,-7.9 -28.5,18.6 -34.8 -4.7"/><text font-family="OpenSansCondensedLight" font-size="14pt" fill="black" transform="translate(-72.1,-24.7)" text-anchor="middle"><tspan x="20" y="16.3">114</tspan></text><rect stroke-width="0" fill="none" width="91.3" height="55.4" transform="translate(4.4,2.8)"/><text font-family="OpenSansCondensedLight" font-size="14pt" fill="black" transform="translate(4.4,2.8)" text-anchor="middle"><tspan x="45.6" y="34"> </tspan></text><path stroke="#000000" fill="none" transform="translate(4.4,2.8)" d="M 0 0"/></g><g transform="translate(603,250)"><g><g>
<g fill="#FFFFFF">
    <path d="M62.1,40.2h-3.1c0.1,-0.1,-0,3,-0,3H0V6c0,0,3.2,-0.1,3.1,-0V2.9h2.9V0h59v37.3h-2.9"/>
</g>
<g stroke="#000000" stroke-dasharray="none">
    <path fill="none" d="M6.1,2.9V0h59v37.3h-2.9"/>
    <path fill="none" d="M3.2,5.9V2.9h59v37.3h-3.1"/>
    <path fill="none" d="M0,6h59v37.3H0V6z"/>
</g>
<rect x="1.9" y="7.8" fill="none" width="55.2" height="33.4"/>
<circle fill="none" cx="33.5" cy="0" r="0.1"/>
<circle fill="none" cx="53.5" cy="0" r="0.1"/>
<circle fill="none" cx="65" cy="3.5" r="0.1"/>
<circle fill="none" cx="65" cy="16.7" r="0.1"/>
<circle fill="none" cx="65" cy="34.9" r="0.1"/>
<circle fill="none" cx="51.1" cy="43.3" r="0.1"/>
<circle fill="none" cx="27.7" cy="43.2" r="0.1"/>
<circle fill="none" cx="7.1" cy="43.2" r="0.1"/>
<circle fill="none" cx="0.1" cy="37.8" r="0.1"/>
<circle fill="none" cx="0.1" cy="23.6" r="0.1"/>
<circle fill="none" cx="0" cy="12.3" r="0.1"/>
<circle fill="none" cx="13.8" cy="0" r="0.1"/>
</g></g><rect stroke="none" stroke-width="1" fill="#FFFFFF" x="0" y="0" width="40" height="20" transform="translate(-80,13.5)"/><path stroke="#000000" fill="none" d="M0.1,23.6 C-16.8,6.6 -23,40.6 -40 23.5"/><text font-family="OpenSansCondensedLight" font-size="14pt" fill="black" transform="translate(-80,13.5)" text-anchor="middle"><tspan x="20" y="16.3">116</tspan></text><rect stroke-width="0" fill="none" width="55.2" height="33.4" transform="translate(1.9,7.8)"/><text font-family="OpenSansCondensedLight" font-size="14pt" fill="black" transform="translate(1.9,7.8)" text-anchor="middle"><tspan x="27.6" y="23"> </tspan></text><path stroke="#000000" fill="none" transform="translate(1.9,7.8)" d="M 0 0"/></g><g><path stroke="black" stroke-dasharray="none" d="M 287 275 287 338" fill="none"/><path fill="black" stroke="black" d="M 8 0 L 0 4 L 8 8 z" transform="translate(291,267) scale(1,1) rotate(-270)"/><path fill="black" stroke="black" d="M 8 0 L 0 4 L 8 8 z" transform="translate(283,346) scale(1,1) rotate(-90)"/><g><g label-idx="0" cursor="move" transform="translate(287, 306.5)"><rect fill="white" rx="3" ry="3" x="0" y="0" width="0" height="0"/><text text-anchor="middle" font-size="14pt" font-family="OpenSansCondensedLight" y="0.8em" display="none" xml:space="preserve" transform="translate(0,0)"/></g></g></g><g><path stroke="black" stroke-dasharray="none" d="M 188 388 210 388" fill="none"/><path fill="black" stroke="black" d="M 8 0 L 0 4 L 8 8 z" transform="translate(180,384) scale(1,1) rotate(0)"/><path fill="black" stroke="black" d="M 8 0 L 0 4 L 8 8 z" transform="translate(218,392) scale(1,1) rotate(-180)"/><g><g label-idx="0" cursor="move" transform="translate(199, 388)"><rect fill="white" rx="3" ry="3" x="0" y="0" width="0" height="0"/><text text-anchor="middle" font-size="14pt" font-family="OpenSansCondensedLight" y="0.8em" display="none" xml:space="preserve" transform="translate(0,0)"/></g></g></g><g><path stroke="black" stroke-dasharray="none" d="M 285 438 285 489" fill="none"/><path fill="black" stroke="black" d="M 8 0 L 0 4 L 8 8 z" transform="translate(289,430) scale(1,1) rotate(-270)"/><path fill="black" stroke="black" d="M 8 0 L 0 4 L 8 8 z" transform="translate(281,497) scale(1,1) rotate(-90)"/><g><g label-idx="0" cursor="move" transform="translate(285, 463.5)"><rect fill="white" rx="3" ry="3" x="0" y="0" width="0" height="0"/><text text-anchor="middle" font-size="14pt" font-family="OpenSansCondensedLight" y="0.8em" display="none" xml:space="preserve" transform="translate(0,0)"/></g></g></g><g><path stroke="black" stroke-dasharray="none" d="M 501 168 517 168 518 281 385 281" fill="none"/><path fill="black" stroke="black" d="M 8 0 L 0 4 L 8 8 z" transform="translate(493,164) scale(1,1) rotate(0)"/><path fill="black" stroke="black" d="M 8 0 L 0 4 L 8 8 z" transform="translate(377,277) scale(1,1) rotate(0)"/><g><g label-idx="0" cursor="move" transform="translate(516, 281)"><rect fill="white" rx="3" ry="3" x="0" y="0" width="0" height="0"/><text text-anchor="middle" font-size="14pt" font-family="OpenSansCondensedLight" y="0.8em" display="none" xml:space="preserve" transform="translate(0,0)"/></g></g></g><g><path stroke="black" stroke-dasharray="none" d="M 374 282 287 282" fill="none"/><path fill="black" stroke="black" d="M 8 0 L 0 4 L 8 8 z" transform="translate(382,286) scale(1,1) rotate(-180)"/><path fill="black" stroke="black" d="" transform="translate(287,282) scale(1,1) rotate(0)"/><g><g label-idx="0" cursor="move" transform="translate(330.5, 282)"><rect fill="white" rx="3" ry="3" x="0" y="0" width="0" height="0"/><text text-anchor="middle" font-size="14pt" font-family="OpenSansCondensedLight" y="0.8em" display="none" xml:space="preserve" transform="translate(0,0)"/></g></g></g><g><path stroke="black" stroke-dasharray="none" d="M 505 358 505 328 331 327 331 280" fill="none"/><path fill="black" stroke="black" d="M 8 0 L 0 4 L 8 8 z" transform="translate(501,366) scale(1,1) rotate(-90)"/><path fill="black" stroke="black" d="" transform="translate(331,280) scale(1,1) rotate(-270)"/><g><g label-idx="0" cursor="move" transform="translate(409.5, 327.5)"><rect fill="white" rx="3" ry="3" x="0" y="0" width="0" height="0"/><text text-anchor="middle" font-size="14pt" font-family="OpenSansCondensedLight" y="0.8em" display="none" xml:space="preserve" transform="translate(0,0)"/></g></g></g><g><path stroke="black" stroke-dasharray="none" d="M 502 221 517 221 517 188 565 188" fill="none"/><path fill="black" stroke="black" d="M 8 0 L 0 4 L 8 8 z" transform="translate(494,217) scale(1,1) rotate(0)"/><path fill="black" stroke="black" d="M 8 0 L 0 4 L 8 8 z" transform="translate(573,192) scale(1,1) rotate(-180)"/><g><g label-idx="0" cursor="move" transform="translate(517, 188)"><rect fill="white" rx="3" ry="3" x="0" y="0" width="0" height="0"/><text text-anchor="middle" font-size="14pt" font-family="OpenSansCondensedLight" y="0.8em" display="none" xml:space="preserve" transform="translate(0,0)"/></g></g></g><g transform="translate(215,293)"><g><g>
<rect y="0" fill="#FFFFFF" width="30.2" height="30.2" stroke="none" stroke-dasharray="none"/>
<rect x="2.1" y="2.3" fill="none" width="26" height="25.7"/>
<circle fill="none" cx="15.1" cy="0" r="0.1"/>
<circle fill="none" cx="23.5" cy="0" r="0.1"/>
<circle fill="none" cx="30.2" cy="7.3" r="0.1"/>
<circle fill="none" cx="30.2" cy="14.7" r="0.1"/>
<circle fill="none" cx="30.2" cy="23" r="0.1"/>
<circle fill="none" cx="23.5" cy="30.2" r="0.1"/>
<circle fill="none" cx="15.1" cy="30.2" r="0.1"/>
<circle fill="none" cx="7.6" cy="30.2" r="0.1"/>
<circle fill="none" cx="0" cy="23" r="0.1"/>
<circle fill="none" cx="0" cy="14.7" r="0.1"/>
<circle fill="none" cx="0" cy="7.3" r="0.1"/>
<circle fill="none" cx="7.7" cy="0" r="0.1"/>
</g></g><rect stroke="none" stroke-width="1" fill="none" x="0" y="0" width="40" height="20" transform="translate(70.1,4.6)"/><path stroke="#000000" fill="none" d="M30.2,14.7 C47.2,31.6 53.2,-2.3 70.1 14.6"/><text font-family="OpenSansCondensedLight" font-size="14pt" fill="black" transform="translate(70.1,4.6)"/><rect stroke-width="0" fill="none" width="26" height="25.7" transform="translate(2.1,2.3)"/><text font-family="OpenSansCondensedLight" font-size="14pt" fill="black" text-decoration="none" transform="translate(2.1,2.3)" text-anchor="middle"><tspan x="13" y="19.2">126</tspan></text><path stroke="#000000" fill="none" transform="translate(2.1,2.3)"/></g></g><defs/></svg>